<?xml version="1.0"?>
<svg xmlns="http://www.w3.org/2000/svg" xmlns:xlink="http://www.w3.org/1999/xlink" version="1.1" viewBox="0 0 224 224" width="48px" height="48px"><g fill="none" fill-rule="nonzero" stroke="none" stroke-width="1" stroke-linecap="butt" stroke-linejoin="miter" stroke-miterlimit="10" stroke-dasharray="" stroke-dashoffset="0" font-family="none" font-weight="none" font-size="none" text-anchor="none" style="mix-blend-mode: normal"><path d="M0,224v-224h224v224z" fill="none"/><g><g id="surface1"><path d="M196,172.66667c0,12.88802 -10.44531,23.33333 -23.33333,23.33333h-121.33333c-12.88802,0 -23.33333,-10.44531 -23.33333,-23.33333v-121.33333c0,-12.88802 10.44531,-23.33333 23.33333,-23.33333h121.33333c12.88802,0 23.33333,10.44531 23.33333,23.33333z" fill="#cccccc"/><path d="M56,88.66667h23.33333v79.33333h-23.33333z" fill="#ffffff"/><path d="M67.59375,79.33333h-0.12761c-6.96354,0 -11.46614,-5.19531 -11.46614,-11.66667c0,-6.63542 4.64844,-11.66667 11.73958,-11.66667c7.09114,0 11.46614,5.03125 11.59375,11.66667c0,6.47136 -4.50261,11.66667 -11.73958,11.66667z" fill="#ffffff"/><path d="M168,168h-23.33333v-42.45573c0,-10.26302 -5.72396,-17.26302 -14.89323,-17.26302c-7,0 -10.79167,4.72136 -12.63281,9.27864c-0.67448,1.64063 -0.47396,6.16146 -0.47396,8.44011v42h-23.33333v-79.33333h23.33333v12.21354c3.37239,-5.21354 8.64063,-12.21354 22.11198,-12.21354c16.69792,0 29.22136,10.5 29.22136,33.94271z" fill="#ffffff"/></g></g></g></svg>
